<?xml version="1.0" encoding="utf-8"?>
<!-- Generator: Adobe Illustrator 25.0.1, SVG Export Plug-In . SVG Version: 6.00 Build 0)  -->
<svg version="1.1" id="Layer_1" xmlns="http://www.w3.org/2000/svg" xmlns:xlink="http://www.w3.org/1999/xlink" x="0px" y="0px"
	 viewBox="0 0 526.3 284" enable-background="new 0 0 526.3 284" xml:space="preserve">
<path id="Path_31" opacity="0.1" fill="#6C63FF" enable-background="new    " d="M526.3,182.3c0,7.7-1.1,15.4-3.2,22.8
	c-2,7.2-5,14-8.9,20.4c0,23-15.6,43-38.1,52.4c-9.4,3.9-19.6,5.9-29.8,5.9H99.9c-17.5,0.1-34.7-4.6-49.7-13.5
	c-4-2.4-7.8-5.2-11.4-8.2c-15.6-13.4-25.3-32-25.3-52.5c-25-38.6-14-90.2,24.6-115.2c3.4-2.2,6.9-4.1,10.6-5.8
	c3.8-1.7,7.7-3.1,11.7-4.2c1.4-0.4,2.9-0.7,4.3-1c3.9-0.8,7.8-1.4,11.7-1.6c1.4-0.1,2.9-0.1,4.3-0.2h0.8c1.6,0,3.2,0.1,4.7,0.1
	l0.5-0.9c0.6-1.1,1.3-2.1,1.9-3.1c1.2-1.9,2.5-3.7,3.8-5.6c1.4-1.9,2.8-3.8,4.3-5.7l0.4-0.5c0.8-1.1,1.7-2.1,2.6-3.1
	c2.8-3.2,5.7-6.3,8.7-9.4C141.6,20.9,193.5,0,252,0c45.5,0,87,12.7,118.8,33.6c12.1-6.8,25.7-10.4,39.5-10.4c45,0,81.4,37,81.4,82.6
	c0,2.9-0.2,5.8-0.5,8.6C513.3,130,526.3,155.3,526.3,182.3z"/>
<path id="Path_32" opacity="0.2" fill="#6C63FF" enable-background="new    " d="M108.4,53.4v9.4h-8.7
	C102.4,59.6,105.3,56.5,108.4,53.4z"/>
<rect id="Rectangle_28" x="112.7" y="51.1" opacity="0.2" fill="#6C63FF" enable-background="new    " width="11.7" height="11.7"/>
<rect id="Rectangle_29" x="128.8" y="51.1" opacity="0.2" fill="#6C63FF" enable-background="new    " width="11.7" height="11.7"/>
<rect id="Rectangle_30" x="144.8" y="51.1" opacity="0.2" fill="#6C63FF" enable-background="new    " width="11.7" height="11.7"/>
<rect id="Rectangle_31" x="160.8" y="51.1" opacity="0.2" fill="#6C63FF" enable-background="new    " width="11.7" height="11.7"/>
<rect id="Rectangle_32" x="176.9" y="51.1" opacity="0.2" fill="#6C63FF" enable-background="new    " width="11.7" height="11.7"/>
<rect id="Rectangle_33" x="192.9" y="51.1" fill="#6C63FF" width="11.7" height="11.7"/>
<rect id="Rectangle_34" x="208.9" y="51.1" opacity="0.2" fill="#6C63FF" enable-background="new    " width="11.7" height="11.7"/>
<rect id="Rectangle_35" x="225" y="51.1" opacity="0.2" fill="#6C63FF" enable-background="new    " width="11.7" height="11.7"/>
<rect id="Rectangle_36" x="241" y="51.1" opacity="0.2" fill="#6C63FF" enable-background="new    " width="11.7" height="11.7"/>
<rect id="Rectangle_37" x="257.1" y="51.1" fill="#6C63FF" width="11.7" height="11.7"/>
<rect id="Rectangle_38" x="273.1" y="51.1" opacity="0.2" fill="#6C63FF" enable-background="new    " width="11.7" height="11.7"/>
<rect id="Rectangle_39" x="289.1" y="51.1" opacity="0.2" fill="#6C63FF" enable-background="new    " width="11.7" height="11.7"/>
<rect id="Rectangle_40" x="305.2" y="51.1" opacity="0.2" fill="#6C63FF" enable-background="new    " width="11.7" height="11.7"/>
<rect id="Rectangle_41" x="321.2" y="51.1" opacity="0.2" fill="#6C63FF" enable-background="new    " width="11.7" height="11.7"/>
<rect id="Rectangle_42" x="337.3" y="51.1" opacity="0.2" fill="#6C63FF" enable-background="new    " width="11.7" height="11.7"/>
<rect id="Rectangle_43" x="353.3" y="51.1" opacity="0.2" fill="#6C63FF" enable-background="new    " width="11.7" height="11.7"/>
<rect id="Rectangle_44" x="369.3" y="51.1" fill="#6C63FF" width="11.7" height="11.7"/>
<rect id="Rectangle_45" x="385.4" y="51.1" fill="#6C63FF" width="11.7" height="11.7"/>
<rect id="Rectangle_46" x="401.4" y="51.1" opacity="0.2" fill="#6C63FF" enable-background="new    " width="11.7" height="11.7"/>
<rect id="Rectangle_47" x="417.5" y="51.1" opacity="0.2" fill="#6C63FF" enable-background="new    " width="11.7" height="11.7"/>
<rect id="Rectangle_48" x="433.5" y="51.1" fill="#6C63FF" width="11.7" height="11.7"/>
<rect id="Rectangle_49" x="449.5" y="51.1" fill="#6C63FF" width="11.7" height="11.7"/>
<path id="Path_33" fill="#6C63FF" d="M92.4,72.1v5.6h-3.8C89.8,75.8,91.1,73.9,92.4,72.1z"/>
<rect id="Rectangle_50" x="96.7" y="65.9" opacity="0.2" fill="#6C63FF" enable-background="new    " width="11.7" height="11.7"/>
<rect id="Rectangle_51" x="112.7" y="65.9" fill="#6C63FF" width="11.7" height="11.7"/>
<rect id="Rectangle_52" x="128.8" y="65.9" opacity="0.2" fill="#6C63FF" enable-background="new    " width="11.7" height="11.7"/>
<rect id="Rectangle_53" x="144.8" y="65.9" opacity="0.7" fill="#6C63FF" enable-background="new    " width="11.7" height="11.7"/>
<rect id="Rectangle_54" x="160.8" y="65.9" opacity="0.2" fill="#6C63FF" enable-background="new    " width="11.7" height="11.7"/>
<rect id="Rectangle_55" x="176.9" y="65.9" opacity="0.4" fill="#6C63FF" enable-background="new    " width="11.7" height="11.7"/>
<rect id="Rectangle_56" x="192.9" y="65.9" fill="#6C63FF" width="11.7" height="11.7"/>
<rect id="Rectangle_57" x="208.9" y="65.9" opacity="0.4" fill="#6C63FF" enable-background="new    " width="11.7" height="11.7"/>
<rect id="Rectangle_58" x="225" y="65.9" opacity="0.2" fill="#6C63FF" enable-background="new    " width="11.7" height="11.7"/>
<rect id="Rectangle_59" x="241" y="65.9" opacity="0.4" fill="#6C63FF" enable-background="new    " width="11.7" height="11.7"/>
<rect id="Rectangle_60" x="257.1" y="65.9" fill="#6C63FF" width="11.7" height="11.7"/>
<rect id="Rectangle_61" x="273.1" y="65.9" opacity="0.4" fill="#6C63FF" enable-background="new    " width="11.7" height="11.7"/>
<rect id="Rectangle_62" x="289.1" y="65.9" opacity="0.4" fill="#6C63FF" enable-background="new    " width="11.7" height="11.7"/>
<rect id="Rectangle_63" x="305.2" y="65.9" opacity="0.2" fill="#6C63FF" enable-background="new    " width="11.7" height="11.7"/>
<rect id="Rectangle_64" x="321.2" y="65.9" opacity="0.4" fill="#6C63FF" enable-background="new    " width="11.7" height="11.7"/>
<rect id="Rectangle_65" x="337.3" y="65.9" opacity="0.4" fill="#6C63FF" enable-background="new    " width="11.7" height="11.7"/>
<rect id="Rectangle_66" x="353.3" y="65.9" opacity="0.2" fill="#6C63FF" enable-background="new    " width="11.7" height="11.7"/>
<rect id="Rectangle_67" x="369.3" y="65.9" opacity="0.2" fill="#6C63FF" enable-background="new    " width="11.7" height="11.7"/>
<rect id="Rectangle_68" x="385.4" y="65.9" opacity="0.4" fill="#6C63FF" enable-background="new    " width="11.7" height="11.7"/>
<rect id="Rectangle_69" x="401.4" y="65.9" opacity="0.2" fill="#6C63FF" enable-background="new    " width="11.7" height="11.7"/>
<rect id="Rectangle_70" x="417.5" y="65.9" fill="#6C63FF" width="11.7" height="11.7"/>
<rect id="Rectangle_71" x="433.5" y="65.9" fill="#6C63FF" width="11.7" height="11.7"/>
<rect id="Rectangle_72" x="449.5" y="65.9" fill="#6C63FF" width="11.7" height="11.7"/>
<path id="Path_34" opacity="0.2" fill="#6C63FF" enable-background="new    " d="M60.3,84.3v8.2H48.6v-4
	C52.4,86.8,56.3,85.4,60.3,84.3z"/>
<path id="Path_35" opacity="0.2" fill="#6C63FF" enable-background="new    " d="M76.3,81.7v10.9H64.6v-9.2L76.3,81.7z"/>
<rect id="Rectangle_73" x="80.6" y="80.8" fill="#6C63FF" width="11.7" height="11.7"/>
<rect id="Rectangle_74" x="96.7" y="80.8" opacity="0.7" fill="#6C63FF" enable-background="new    " width="11.7" height="11.7"/>
<rect id="Rectangle_75" x="112.7" y="80.8" fill="#6C63FF" width="11.7" height="11.7"/>
<rect id="Rectangle_76" x="128.8" y="80.8" opacity="0.7" fill="#6C63FF" enable-background="new    " width="11.7" height="11.7"/>
<rect id="Rectangle_77" x="144.8" y="80.8" opacity="0.7" fill="#6C63FF" enable-background="new    " width="11.7" height="11.7"/>
<rect id="Rectangle_78" x="160.8" y="80.8" opacity="0.2" fill="#6C63FF" enable-background="new    " width="11.7" height="11.7"/>
<rect id="Rectangle_79" x="176.9" y="80.8" opacity="0.4" fill="#6C63FF" enable-background="new    " width="11.7" height="11.7"/>
<rect id="Rectangle_80" x="192.9" y="80.8" opacity="0.4" fill="#6C63FF" enable-background="new    " width="11.7" height="11.7"/>
<rect id="Rectangle_81" x="208.9" y="80.8" fill="#6C63FF" width="11.7" height="11.7"/>
<rect id="Rectangle_82" x="225" y="80.8" opacity="0.2" fill="#6C63FF" enable-background="new    " width="11.7" height="11.7"/>
<rect id="Rectangle_83" x="241" y="80.8" opacity="0.4" fill="#6C63FF" enable-background="new    " width="11.7" height="11.7"/>
<rect id="Rectangle_84" x="257.1" y="80.8" fill="#6C63FF" width="11.7" height="11.7"/>
<rect id="Rectangle_85" x="273.1" y="80.8" opacity="0.2" fill="#6C63FF" enable-background="new    " width="11.7" height="11.7"/>
<rect id="Rectangle_86" x="289.1" y="80.8" opacity="0.4" fill="#6C63FF" enable-background="new    " width="11.7" height="11.7"/>
<rect id="Rectangle_87" x="305.2" y="80.8" opacity="0.2" fill="#6C63FF" enable-background="new    " width="11.7" height="11.7"/>
<rect id="Rectangle_88" x="321.2" y="80.8" fill="#6C63FF" width="11.7" height="11.7"/>
<rect id="Rectangle_89" x="337.3" y="80.8" opacity="0.2" fill="#6C63FF" enable-background="new    " width="11.7" height="11.7"/>
<rect id="Rectangle_90" x="353.3" y="80.8" opacity="0.7" fill="#6C63FF" enable-background="new    " width="11.7" height="11.7"/>
<rect id="Rectangle_91" x="369.3" y="80.8" opacity="0.7" fill="#6C63FF" enable-background="new    " width="11.7" height="11.7"/>
<rect id="Rectangle_92" x="385.4" y="80.8" opacity="0.4" fill="#6C63FF" enable-background="new    " width="11.7" height="11.7"/>
<rect id="Rectangle_93" x="401.4" y="80.8" opacity="0.2" fill="#6C63FF" enable-background="new    " width="11.7" height="11.7"/>
<rect id="Rectangle_94" x="417.5" y="80.8" fill="#6C63FF" width="11.7" height="11.7"/>
<rect id="Rectangle_95" x="433.5" y="80.8" fill="#6C63FF" width="11.7" height="11.7"/>
<rect id="Rectangle_96" x="449.5" y="80.8" fill="#6C63FF" width="11.7" height="11.7"/>
<rect id="Rectangle_97" x="48.6" y="95.6" opacity="0.2" fill="#6C63FF" enable-background="new    " width="11.7" height="11.7"/>
<rect id="Rectangle_98" x="64.6" y="95.6" opacity="0.2" fill="#6C63FF" enable-background="new    " width="11.7" height="11.7"/>
<rect id="Rectangle_99" x="80.6" y="95.6" opacity="0.2" fill="#6C63FF" enable-background="new    " width="11.7" height="11.7"/>
<rect id="Rectangle_100" x="96.7" y="95.6" opacity="0.2" fill="#6C63FF" enable-background="new    " width="11.7" height="11.7"/>
<rect id="Rectangle_101" x="112.7" y="95.6" fill="#6C63FF" width="11.7" height="11.7"/>
<rect id="Rectangle_102" x="128.8" y="95.6" opacity="0.7" fill="#6C63FF" enable-background="new    " width="11.7" height="11.7"/>
<rect id="Rectangle_103" x="144.8" y="95.6" opacity="0.7" fill="#6C63FF" enable-background="new    " width="11.7" height="11.7"/>
<rect id="Rectangle_104" x="160.8" y="95.6" opacity="0.2" fill="#6C63FF" enable-background="new    " width="11.7" height="11.7"/>
<rect id="Rectangle_105" x="176.9" y="95.6" opacity="0.2" fill="#6C63FF" enable-background="new    " width="11.7" height="11.7"/>
<rect id="Rectangle_106" x="192.9" y="95.6" opacity="0.4" fill="#6C63FF" enable-background="new    " width="11.7" height="11.7"/>
<rect id="Rectangle_107" x="208.9" y="95.6" opacity="0.4" fill="#6C63FF" enable-background="new    " width="11.7" height="11.7"/>
<rect id="Rectangle_108" x="225" y="95.6" fill="#6C63FF" width="11.7" height="11.7"/>
<rect id="Rectangle_109" x="241" y="95.6" opacity="0.2" fill="#6C63FF" enable-background="new    " width="11.7" height="11.7"/>
<rect id="Rectangle_110" x="257.1" y="95.6" opacity="0.4" fill="#6C63FF" enable-background="new    " width="11.7" height="11.7"/>
<rect id="Rectangle_111" x="273.1" y="95.6" opacity="0.4" fill="#6C63FF" enable-background="new    " width="11.7" height="11.7"/>
<rect id="Rectangle_112" x="289.1" y="95.6" opacity="0.4" fill="#6C63FF" enable-background="new    " width="11.7" height="11.7"/>
<rect id="Rectangle_113" x="305.2" y="95.6" opacity="0.4" fill="#6C63FF" enable-background="new    " width="11.7" height="11.7"/>
<rect id="Rectangle_114" x="321.2" y="95.6" opacity="0.2" fill="#6C63FF" enable-background="new    " width="11.7" height="11.7"/>
<rect id="Rectangle_115" x="337.3" y="95.6" opacity="0.2" fill="#6C63FF" enable-background="new    " width="11.7" height="11.7"/>
<rect id="Rectangle_116" x="353.3" y="95.6" opacity="0.2" fill="#6C63FF" enable-background="new    " width="11.7" height="11.7"/>
<rect id="Rectangle_117" x="369.3" y="95.6" opacity="0.2" fill="#6C63FF" enable-background="new    " width="11.7" height="11.7"/>
<rect id="Rectangle_118" x="385.4" y="95.6" opacity="0.7" fill="#6C63FF" enable-background="new    " width="11.7" height="11.7"/>
<rect id="Rectangle_119" x="401.4" y="95.6" opacity="0.7" fill="#6C63FF" enable-background="new    " width="11.7" height="11.7"/>
<rect id="Rectangle_120" x="417.5" y="95.6" opacity="0.4" fill="#6C63FF" enable-background="new    " width="11.7" height="11.7"/>
<rect id="Rectangle_121" x="433.5" y="95.6" opacity="0.2" fill="#6C63FF" enable-background="new    " width="11.7" height="11.7"/>
<rect id="Rectangle_122" x="449.5" y="95.6" fill="#6C63FF" width="11.7" height="11.7"/>
<rect id="Rectangle_123" x="48.6" y="110.5" opacity="0.2" fill="#6C63FF" enable-background="new    " width="11.7" height="11.7"/>
<rect id="Rectangle_124" x="64.6" y="110.5" opacity="0.2" fill="#6C63FF" enable-background="new    " width="11.7" height="11.7"/>
<rect id="Rectangle_125" x="80.6" y="110.5" opacity="0.4" fill="#6C63FF" enable-background="new    " width="11.7" height="11.7"/>
<rect id="Rectangle_126" x="96.7" y="110.5" opacity="0.2" fill="#6C63FF" enable-background="new    " width="11.7" height="11.7"/>
<rect id="Rectangle_127" x="112.7" y="110.5" opacity="0.2" fill="#6C63FF" enable-background="new    " width="11.7" height="11.7"/>
<rect id="Rectangle_128" x="128.8" y="110.5" opacity="0.7" fill="#6C63FF" enable-background="new    " width="11.7" height="11.7"/>
<rect id="Rectangle_129" x="144.8" y="110.5" opacity="0.7" fill="#6C63FF" enable-background="new    " width="11.7" height="11.7"/>
<rect id="Rectangle_130" x="160.8" y="110.5" opacity="0.2" fill="#6C63FF" enable-background="new    " width="11.7" height="11.7"/>
<rect id="Rectangle_131" x="176.9" y="110.5" opacity="0.2" fill="#6C63FF" enable-background="new    " width="11.7" height="11.7"/>
<rect id="Rectangle_132" x="192.9" y="110.5" opacity="0.4" fill="#6C63FF" enable-background="new    " width="11.7" height="11.7"/>
<rect id="Rectangle_133" x="208.9" y="110.5" fill="#6C63FF" width="11.7" height="11.7"/>
<rect id="Rectangle_134" x="225" y="110.5" opacity="0.2" fill="#6C63FF" enable-background="new    " width="11.7" height="11.7"/>
<rect id="Rectangle_135" x="241" y="110.5" fill="#6C63FF" width="11.7" height="11.7"/>
<rect id="Rectangle_136" x="257.1" y="110.5" fill="#6C63FF" width="11.7" height="11.7"/>
<rect id="Rectangle_137" x="273.1" y="110.5" fill="#6C63FF" width="11.7" height="11.7"/>
<rect id="Rectangle_138" x="289.1" y="110.5" opacity="0.2" fill="#6C63FF" enable-background="new    " width="11.7" height="11.7"/>
<rect id="Rectangle_139" x="305.2" y="110.5" fill="#6C63FF" width="11.7" height="11.7"/>
<rect id="Rectangle_140" x="321.2" y="110.5" opacity="0.2" fill="#6C63FF" enable-background="new    " width="11.7" height="11.7"/>
<rect id="Rectangle_141" x="337.3" y="110.5" opacity="0.2" fill="#6C63FF" enable-background="new    " width="11.7" height="11.7"/>
<rect id="Rectangle_142" x="353.3" y="110.5" opacity="0.2" fill="#6C63FF" enable-background="new    " width="11.7" height="11.7"/>
<rect id="Rectangle_143" x="369.3" y="110.5" opacity="0.2" fill="#6C63FF" enable-background="new    " width="11.7" height="11.7"/>
<rect id="Rectangle_144" x="385.4" y="110.5" opacity="0.2" fill="#6C63FF" enable-background="new    " width="11.7" height="11.7"/>
<rect id="Rectangle_145" x="401.4" y="110.5" opacity="0.7" fill="#6C63FF" enable-background="new    " width="11.7" height="11.7"/>
<rect id="Rectangle_146" x="417.5" y="110.5" opacity="0.2" fill="#6C63FF" enable-background="new    " width="11.7" height="11.7"/>
<rect id="Rectangle_147" x="433.5" y="110.5" opacity="0.2" fill="#6C63FF" enable-background="new    " width="11.7" height="11.7"/>
<rect id="Rectangle_148" x="449.5" y="110.5" fill="#6C63FF" width="11.7" height="11.7"/>
<rect id="Rectangle_149" x="48.6" y="125.4" opacity="0.2" fill="#6C63FF" enable-background="new    " width="11.7" height="11.7"/>
<rect id="Rectangle_150" x="64.6" y="125.4" opacity="0.2" fill="#6C63FF" enable-background="new    " width="11.7" height="11.7"/>
<rect id="Rectangle_151" x="80.6" y="125.4" opacity="0.2" fill="#6C63FF" enable-background="new    " width="11.7" height="11.7"/>
<rect id="Rectangle_152" x="96.7" y="125.4" opacity="0.4" fill="#6C63FF" enable-background="new    " width="11.7" height="11.7"/>
<rect id="Rectangle_153" x="112.7" y="125.4" opacity="0.2" fill="#6C63FF" enable-background="new    " width="11.7" height="11.7"/>
<rect id="Rectangle_154" x="128.8" y="125.4" opacity="0.2" fill="#6C63FF" enable-background="new    " width="11.7" height="11.7"/>
<rect id="Rectangle_155" x="144.8" y="125.4" opacity="0.7" fill="#6C63FF" enable-background="new    " width="11.7" height="11.7"/>
<rect id="Rectangle_156" x="160.8" y="125.4" opacity="0.2" fill="#6C63FF" enable-background="new    " width="11.7" height="11.7"/>
<rect id="Rectangle_157" x="176.9" y="125.4" opacity="0.2" fill="#6C63FF" enable-background="new    " width="11.7" height="11.7"/>
<rect id="Rectangle_158" x="192.9" y="125.4" opacity="0.2" fill="#6C63FF" enable-background="new    " width="11.7" height="11.7"/>
<rect id="Rectangle_159" x="208.9" y="125.4" fill="#6C63FF" width="11.7" height="11.7"/>
<rect id="Rectangle_160" x="225" y="125.4" opacity="0.2" fill="#6C63FF" enable-background="new    " width="11.7" height="11.7"/>
<rect id="Rectangle_161" x="241" y="125.4" fill="#6C63FF" width="11.7" height="11.7"/>
<rect id="Rectangle_162" x="257.1" y="125.4" fill="#6C63FF" width="11.7" height="11.7"/>
<rect id="Rectangle_163" x="273.1" y="125.4" opacity="0.2" fill="#6C63FF" enable-background="new    " width="11.7" height="11.7"/>
<rect id="Rectangle_164" x="289.1" y="125.4" opacity="0.2" fill="#6C63FF" enable-background="new    " width="11.7" height="11.7"/>
<rect id="Rectangle_165" x="305.2" y="125.4" opacity="0.2" fill="#6C63FF" enable-background="new    " width="11.7" height="11.7"/>
<rect id="Rectangle_166" x="321.2" y="125.4" opacity="0.2" fill="#6C63FF" enable-background="new    " width="11.7" height="11.7"/>
<rect id="Rectangle_167" x="337.3" y="125.4" opacity="0.2" fill="#6C63FF" enable-background="new    " width="11.7" height="11.7"/>
<rect id="Rectangle_168" x="353.3" y="125.4" opacity="0.2" fill="#6C63FF" enable-background="new    " width="11.7" height="11.7"/>
<rect id="Rectangle_169" x="369.3" y="125.4" opacity="0.2" fill="#6C63FF" enable-background="new    " width="11.7" height="11.7"/>
<rect id="Rectangle_170" x="385.4" y="125.4" opacity="0.2" fill="#6C63FF" enable-background="new    " width="11.7" height="11.7"/>
<rect id="Rectangle_171" x="401.4" y="125.4" opacity="0.2" fill="#6C63FF" enable-background="new    " width="11.7" height="11.7"/>
<rect id="Rectangle_172" x="417.5" y="125.4" opacity="0.2" fill="#6C63FF" enable-background="new    " width="11.7" height="11.7"/>
<rect id="Rectangle_173" x="433.5" y="125.4" opacity="0.4" fill="#6C63FF" enable-background="new    " width="11.7" height="11.7"/>
<rect id="Rectangle_174" x="449.5" y="125.4" fill="#6C63FF" width="11.7" height="11.7"/>
<rect id="Rectangle_175" x="48.6" y="140.2" opacity="0.7" fill="#6C63FF" enable-background="new    " width="11.7" height="11.7"/>
<rect id="Rectangle_176" x="64.6" y="140.2" opacity="0.7" fill="#6C63FF" enable-background="new    " width="11.7" height="11.7"/>
<rect id="Rectangle_177" x="80.6" y="140.2" opacity="0.7" fill="#6C63FF" enable-background="new    " width="11.7" height="11.7"/>
<rect id="Rectangle_178" x="96.7" y="140.2" opacity="0.7" fill="#6C63FF" enable-background="new    " width="11.7" height="11.7"/>
<rect id="Rectangle_179" x="112.7" y="140.2" opacity="0.7" fill="#6C63FF" enable-background="new    " width="11.7" height="11.7"/>
<rect id="Rectangle_180" x="128.8" y="140.2" opacity="0.2" fill="#6C63FF" enable-background="new    " width="11.7" height="11.7"/>
<rect id="Rectangle_181" x="144.8" y="140.2" opacity="0.2" fill="#6C63FF" enable-background="new    " width="11.7" height="11.7"/>
<rect id="Rectangle_182" x="160.8" y="140.2" opacity="0.2" fill="#6C63FF" enable-background="new    " width="11.7" height="11.7"/>
<rect id="Rectangle_183" x="176.9" y="140.2" opacity="0.2" fill="#6C63FF" enable-background="new    " width="11.7" height="11.7"/>
<rect id="Rectangle_184" x="192.9" y="140.2" opacity="0.2" fill="#6C63FF" enable-background="new    " width="11.7" height="11.7"/>
<rect id="Rectangle_185" x="208.9" y="140.2" opacity="0.2" fill="#6C63FF" enable-background="new    " width="11.7" height="11.7"/>
<rect id="Rectangle_186" x="225" y="140.2" fill="#6C63FF" width="11.7" height="11.7"/>
<rect id="Rectangle_187" x="241" y="140.2" opacity="0.2" fill="#6C63FF" enable-background="new    " width="11.7" height="11.7"/>
<rect id="Rectangle_188" x="257.1" y="140.2" opacity="0.2" fill="#6C63FF" enable-background="new    " width="11.7" height="11.7"/>
<rect id="Rectangle_189" x="273.1" y="140.2" opacity="0.2" fill="#6C63FF" enable-background="new    " width="11.7" height="11.7"/>
<rect id="Rectangle_190" x="289.1" y="140.2" fill="#6C63FF" width="11.7" height="11.7"/>
<rect id="Rectangle_191" x="305.2" y="140.2" opacity="0.2" fill="#6C63FF" enable-background="new    " width="11.7" height="11.7"/>
<rect id="Rectangle_192" x="321.2" y="140.2" opacity="0.2" fill="#6C63FF" enable-background="new    " width="11.7" height="11.7"/>
<rect id="Rectangle_193" x="337.3" y="140.2" opacity="0.2" fill="#6C63FF" enable-background="new    " width="11.7" height="11.7"/>
<rect id="Rectangle_194" x="353.3" y="140.2" opacity="0.2" fill="#6C63FF" enable-background="new    " width="11.7" height="11.7"/>
<rect id="Rectangle_195" x="369.3" y="140.2" opacity="0.2" fill="#6C63FF" enable-background="new    " width="11.7" height="11.7"/>
<rect id="Rectangle_196" x="385.4" y="140.2" opacity="0.2" fill="#6C63FF" enable-background="new    " width="11.7" height="11.7"/>
<rect id="Rectangle_197" x="401.4" y="140.2" opacity="0.2" fill="#6C63FF" enable-background="new    " width="11.7" height="11.7"/>
<rect id="Rectangle_198" x="417.5" y="140.2" opacity="0.2" fill="#6C63FF" enable-background="new    " width="11.7" height="11.7"/>
<rect id="Rectangle_199" x="433.5" y="140.2" opacity="0.2" fill="#6C63FF" enable-background="new    " width="11.7" height="11.7"/>
<rect id="Rectangle_200" x="449.5" y="140.2" fill="#6C63FF" width="11.7" height="11.7"/>
<circle id="Ellipse_41" fill="#767D9F" cx="337.9" cy="167.4" r="16"/>
<path id="Path_36" fill="#AE6E79" d="M337.1,147c1.6,7,3,14,4.1,21.1c0.3,2.1,0.6,4.3-0.1,6.3c-0.6,1.7-1.9,3-3,4.4s-1.8,3.3-1.2,5
	s2.4,2.6,4.2,3c5,1.3,10.2,0.4,15.2-1.1c2.2-0.6,4.4-1.5,6.4-2.6c2-1.4,3.9-3.1,5.4-5.1c7.2-8.7,11.9-19.2,16.3-29.5
	c-5.8,0.5-11.4-1.8-15.2-6.1c-1.8-2.1-3.1-5.1-2.1-7.7c-3,1.6-6.6,1.8-9.8,2.9c-2,0.8-3.9,1.7-5.8,2.8c-2.2,1.3-4.4,2.6-6.6,3.9
	C342.3,145.8,340,147.1,337.1,147z"/>
<path id="Path_37" fill="#767D9F" d="M370.6,159c-2.8,5.5-6.5,10.7-11.7,14s-12.2,4.1-17.5,0.9c-2.6-1.6-4.5-4-6.8-6
	s-5.1-3.7-8.1-3.5c-3.3,0.3-5.9,2.9-8.2,5.4c-3.5,3.7-6.5,7.8-9.1,12.2c-4.6,8.6-5.7,18.7-5.5,28.4c0.2,9.8,1.6,19.5,1.6,29.2
	c0,12-2,23.9-4,35.7c18.9-2.3,37.8,2.8,56.8,4.7c12.1,1.2,24.3,1.2,36.5,1.2c2.1,0,4.4-0.1,6.2-1.2c1.1-0.8,2-1.8,2.6-3.1
	c1.5-3.2,2.5-6.6,2.8-10.1c1.2-8.8,1.2-17.8,1.3-26.7c0.1-21.6,0.2-43.3-2.6-64.8c-0.7-5.3-1.5-10.6-3.6-15.5s-5.3-9.5-9.9-12.1
	c-3-1.7-9.8-4.7-13.3-2.9C374.3,146.6,372.5,155.4,370.6,159z"/>
<path id="Path_38" fill="#4C4981" d="M372,220.1c-0.7-13.3-3.6-27.6,2.6-39.4c1.5-2.9-3.9-6.5-2.2-9.4c2.1-3.4,3.6-7.1,4.6-11
	c0.4-1.3,0.5-2.7,0.3-4.1c-0.6-2.4-3-3.9-5.1-5.4c-2.3-1.6-3.4-6.6-4.1-9.3s5.8,0.6,8.4-0.4c3.6-1.3,8.3-0.5,11.9,0.9
	c2.1,0.6,4.2,0.9,6.4,0.9c4.2,0.2,8.4,0.1,12.6-0.3c1.9-0.3,3.7-0.5,5.6-0.5c4.8,0.3,9,3.5,11.8,7.4s4.6,8.4,7,12.6
	c1.9,3.5,4.2,6.8,5.9,10.4c1.4,3.3,2.5,6.7,3.3,10.1l2.4,8.8c0.4,1.3,0.6,2.6,0.6,3.9c-0.2,1.4-0.7,2.8-1.4,4
	c-2.4,4.7-5.3,9-8.6,13.1c-5,6.1-11,11.6-13.9,18.9c-1.1,2.9-1.9,5.8-2.4,8.9c-2.4,12-4,24.2-5,36.4c-5.4-2.5-11-4.4-16.8-5.6
	c-2.9-0.6-5.8-1.1-8.7-1.4c-2.6-0.3-5.9,0.2-8.3-0.5c-4.1-1.2-4.5-8.1-5.2-11.7c-0.9-5.8-1.3-11.6-1.2-17.5
	C372.2,233.3,372.4,226.7,372,220.1z"/>
<path id="Path_39" fill="#4C4981" d="M282.1,195.1c1.9,11,4.1,22.1,8.3,32.5c-0.1,0.1-0.2,0.2-0.3,0.3c-0.4,0.3-0.8,0.6-1.2,0.9
	c-1,0.6-1.9,1.3-2.8,2.1c-0.3,0.3-0.5,0.7-0.7,1.1c-0.3,0.7-0.3,1.4,0,2.1c-2.2,1-4.7,0.7-7.2,0.6c-2.1-0.1-4.2,0-5.9,1.2
	c-2.4,1.6-3.1,4.8-3.5,7.6c-0.1,1-0.3,2.1-0.4,3.1c-0.1,1-0.2,1.9-0.2,2.9c-0.2,3.2-0.2,6.4-0.1,9.7c0,0.6,0.1,1.2,0.1,1.8
	c-7.5-0.2-14.4-4.1-20.8-7.9c-1.5-0.8-2.9-1.9-4-3.2c-0.9-1.4-1.3-3.1-1.1-4.7c0-0.2,0-0.5,0.1-0.7c0.2-1.4,0.6-2.7,1.1-4
	c2-5.5,5-10.6,8.8-15c1.6-1.9,3.5-3.8,4.3-6.2c0.3-1.1,0.5-2.2,0.8-3.2c1.5-4.5,7-6.7,8.9-11.1c0.4-1.1,0.8-2.2,1.2-3.2
	c0.5-0.8,1.2-1.6,2-2.2c0.3-0.3,0.7-0.6,1-0.8c3.2-2.5,6.3-5.2,9.3-8c0.6-0.5,1.1-1.1,1.7-1.6C281.5,191,281.7,193.1,282.1,195.1
	L282.1,195.1z"/>
<path id="Path_40" fill="#4C4981" d="M328.5,162.5c-0.7,0.7-1.4,1.4-2.1,2l-0.2,0.2l-0.7,0.7c-1.4,1.2-2.5,2.5-3.5,4l-0.1,0.1
	c-2.3,4.2-1.5,9.4-0.8,14.1c0.8,5.9,1.2,11.9,1.1,17.9c-0.1,8.3-1.1,16.5-1.1,24.8c0,1.9,0,3.8,0.1,5.6c0.1,3,0.4,6.1,0.6,9.1
	c0.3,3.3,0.7,6.7,1,10c0.3,2.6,0.5,5.2,0.7,7.7c0.1,1.3,0.2,2.7,0.3,4c0.1,1.6,0.2,3.1,0.2,4.7l0,0c0,1,0.1,2,0.1,3v1.7
	c0,1.1,0,2.1-0.1,3.2c-0.1,1.4-0.2,2.8-0.3,4.1c0,1.5-0.5,3-1.5,4.2c-0.1,0.1-0.1,0.1-0.2,0.2l-1.5-0.2c-10.3-1.2-20.6-1.4-31-0.6
	c0.2-1.6,0.4-3.1,0.6-4.7c0.1-0.7,0.2-1.5,0.3-2.2c0.1-0.8,0.2-1.7,0.3-2.5c0.1-0.9,0.2-1.8,0.3-2.8c0.2-2.4,0.4-4.7,0.6-7.1
	c0.3-3.5,0.5-6.9,0.6-10.4c0.1-1.7,0.1-3.3,0.2-5c0.1-2.1,0.1-4.1,0.1-6.2c0-2,0-4-0.1-6c0-0.7,0-1.3-0.1-2c0-0.6-0.1-1.2-0.2-1.8
	c-0.3-1.3-0.8-2.6-1.4-3.9c-0.1-0.2-0.2-0.5-0.3-0.7c-0.1-0.1-0.1-0.3-0.2-0.4c2.7-2.4,4.5-5.5,6.3-8.6c2.9-5,5.9-10.2,6.4-16
	s-2.4-12.3-7.9-14.1c-1.5-0.4-3.1-0.7-4.6-0.9c-2.2-0.3-4.3-0.9-6.2-1.9c-0.9,0.9-1.8,1.9-2.8,2.8c0.1-1.4,0.4-2.8,1-4l0.7,0
	c-0.1-0.1-0.1-0.3-0.1-0.5c0.1-0.7,0.5-1.3,1.1-1.7c2.2-1.8,5.6-2.2,6.9-4.7c0.4-1.1,0.8-2.2,1.1-3.4c1.3-3.1,5.1-4.2,7.4-6.7
	s2.9-6,4.7-8.7c1.4-2,3.3-3.6,5.5-4.6c0.2-0.1,0.4-0.2,0.6-0.3c3.8-1.6,8.4-2,12.3-2c1.5,0,5.5,0,7.5,0.8c0.3,0.1,0.6,0.3,0.9,0.5
	C333.2,156.1,330,160.8,328.5,162.5z"/>
<path id="Path_41" fill="#4C4981" d="M282.8,184.6c7.2-2.2,14.9-1.4,21.5,2.2c3.4,1.8,6.2,4.4,8.1,7.7c2.7,5,2.6,11,2.4,16.6
	c-0.1,2.8-0.2,5.8-1.5,8.3c-1.4,2.9-4.2,5-7,6.6c-1.7,1.1-3.7,1.9-5.7,2.5c-3.1,0.7-6.3,0.1-9.4-0.5c-3.4-0.6-7-1.4-9.4-3.9
	c-1.3-1.5-2.3-3.3-2.9-5.2c-1.1-2.7-2.1-5.4-3.2-8c-1.9-4.7-2.5-8.5,0-13.1c1.1-2.1,2.5-4,3.6-6.1
	C279.9,190.8,281.9,184.9,282.8,184.6z"/>
<path id="Path_42" fill="#504F60" d="M476.1,264.1v13.8c-9.4,3.9-19.6,5.9-29.8,5.9H322.3c-0.1,0.1-0.1,0.1-0.2,0.2l-1.5-0.2H99.9
	c-17.5,0.1-34.7-4.6-49.7-13.5v-21L156.3,237h0.1l61.8,5.2l16,1.4l8.3,0.7l17.2,1.5l8.8,0.8l12.9,1.1l1.8,0.2l9.3,0.8l12.6,1
	l17.7,1.5l29.5,2.5l20.8,1.8l34.1,2.9l6.5,0.5l0.7,0.1l0.6,0.1l8.6,0.7l9.4,0.8l1.1,0.1L476.1,264.1z"/>
<path id="Path_43" fill="#9C9CA1" d="M351.5,263.6l-133-22.7l-5.2,26.1l61,7.3l18.8,2.3l51.6-10.2L351.5,263.6z"/>
<path id="Path_44" fill="#9C9CA1" d="M282.6,275.4l66.6-12.5c1.2-0.2,2.5,0.6,2.7,1.8c0,0.1,0,0.3,0,0.4l0,0c0,1.1-0.8,2.1-1.9,2.3
	L285,279.6L282.6,275.4z"/>
<path id="Path_45" fill="#AE6E79" d="M311.5,236c2.1-0.1,4.1-0.6,6-1.4c2.3-1.1,4.1-3.1,6.2-4.6c4.7-3.2,10.9-3.7,16.3-1.8
	c5.4,2,9.9,5.7,13,10.5c2.1,3.2,3.6,7.2,2.2,10.7c-0.5,1.1-1.1,2.1-1.9,3l-3.8,5c-0.7,1.1-1.6,2-2.6,2.8c-1.5,1-3.2,1.6-5,1.7
	c-4.7,0.7-9.4,0.3-14.1,0.6c-8.1,0.5-16,3.1-24.1,3.1c-4.7-0.2-9.3-0.8-13.8-1.9l-20.1-4.1c-3.5-0.7-7.5-1.8-9.1-4.9
	c-0.6-1.5-1-3.1-1-4.7c-0.2-4.4,0-9.4,3.1-12.6c2.9-3,7.5-3.9,10.9-6.2c4.2-2.7,5.6-1.8,10.1,0.2C292.5,235.2,302,236.8,311.5,236z"
	/>
<path id="Path_46" opacity="5.000000e-02" enable-background="new    " d="M311.5,236c2.1-0.1,4.1-0.6,6-1.4
	c2.3-1.1,4.1-3.1,6.2-4.6c4.7-3.2,10.9-3.7,16.3-1.8c5.4,2,9.9,5.7,13,10.5c2.1,3.2,3.6,7.2,2.2,10.7c-0.5,1.1-1.1,2.1-1.9,3l-3.8,5
	c-0.7,1.1-1.6,2-2.6,2.8c-1.5,1-3.2,1.6-5,1.7c-4.7,0.7-9.4,0.3-14.1,0.6c-8.1,0.5-16,3.1-24.1,3.1c-4.7-0.2-9.3-0.8-13.8-1.9
	l-20.1-4.1c-3.5-0.7-7.5-1.8-9.1-4.9c-0.6-1.5-1-3.1-1-4.7c-0.2-4.4,0-9.4,3.1-12.6c2.9-3,7.5-3.9,10.9-6.2
	c4.2-2.7,5.6-1.8,10.1,0.2C292.5,235.2,302,236.8,311.5,236z"/>
<path id="Path_47" fill="#AE6E79" d="M392.4,229.7c-5.6,2.3-11.4,4.2-17.2,5.7c-9.9,2.2-20.3,1.8-30.1,4.3c-5.2,1.3-10.4,3.5-15.7,3
	c-2.4-0.3-4.7-0.8-7-1.5c-13.1-3.2-27.9-2.2-38.5,6.1c-3.6,2.9-6.7,6.3-9.3,10.1c-2.2,3-1.4,7.3,1.6,9.4c0.3,0.2,0.7,0.5,1.1,0.6
	c4.1,1.9,8.5,3.1,13.1,3.5c6,0.5,12.1-0.3,18.1-1.2c8.9-1.3,17.8-2.5,26.7-4c3.2-0.5,6.4-1,9.6-1.4c23.1-2.9,46.6,0.6,69.8-1.8
	c2.4-0.1,4.7-0.7,6.9-1.6c5.4-2.5,8.1-9.2,6.9-15.1s-5.4-10.7-10.6-13.7c-4.3-2.5-9-3.5-13.8-4.6C399.4,226.6,396.7,228,392.4,229.7
	z"/>
<path id="Path_48" opacity="0.1" enable-background="new    " d="M441.9,194.6c2.5,3.3,3.1,7.8,2.8,12s-1.3,8.3-1.4,12.5
	c-0.2,5.8,1.2,11.5,1,17.2c-0.3,4-1,8-2.2,11.8c-1.3,4.5-3.3,9.4-7.5,11.6c-5.6,2.9-17.3,1.3-23.1,3.5c0.5-3.3,5.6-8.1,6.2-11.5
	c0.5-2.3,0.6-4.6,0.3-7c-0.6-2.9-2.1-5.6-4.3-7.7c-3.2-3.5-7.5-5.9-12.2-6.9c-4.7-0.8-16.1-0.2-19.8,2.8c-0.5-3,8.1-6,11.1-6.6
	c1.5-0.3,3.2-0.1,4.4-1.1c2.3-1.8,0.6-5.4,0.7-8.3c0.1-2.3,1.4-4.4,1.7-6.7c0.5-3.7-1.9-7.4-1-11c0.5-1.3,1-2.6,1.7-3.8
	c1.6-3.9,0.9-8.3,0-12.5c-0.5-2.6-1.1-5.5,0.4-7.7c1.3-2.1,5.1,5.3,7.6,5c8-1.1,15.3-7.1,21.8-2.2c3.3,2.5,3.7,5.1,5.1,8.6
	C436.5,190.1,439.8,191.8,441.9,194.6z"/>
<path id="Path_49" fill="#4C4981" d="M443.3,194.6c2.5,3.3,3.1,7.8,2.8,12s-1.3,8.3-1.4,12.5c-0.2,5.8,1.2,11.5,1,17.2
	c-0.3,4-1,8-2.2,11.8c-1.3,4.5-3.3,9.4-7.5,11.6c-5.6,2.9-17.3,1.3-23.1,3.5c0.5-3.3,5.6-8.1,6.2-11.5c0.5-2.3,0.6-4.6,0.3-7
	c-0.6-2.9-2.1-5.6-4.3-7.7c-3.2-3.5-7.5-5.9-12.2-6.9c-4.7-0.8-16.1-0.2-19.8,2.8c-0.5-3,8.1-6,11.1-6.6c1.5-0.3,3.2-0.1,4.4-1.1
	c2.3-1.8,0.6-5.4,0.7-8.3c0.1-2.3,1.4-4.4,1.7-6.7c0.5-3.7-1.9-7.4-1-11c0.5-1.3,1-2.6,1.7-3.8c1.6-3.9,0.9-8.3,0-12.5
	c-0.5-2.6-1.1-5.5,0.4-7.7c1.3-2.1,4-2.8,6.4-3.2c8.1-1.1,16.4,1,23,5.9c3.3,2.5,3.7,5.1,5.1,8.6
	C437.8,190.1,441.2,191.8,443.3,194.6z"/>
<path id="Path_50" fill="#9C9CA1" d="M138.9,172.8l25,92.4c0.6,2.3,2.6,4,5,4.2l112.6,10.8c3.2,0.3,6-2,6.3-5.2
	c0.1-0.6,0-1.3-0.1-1.9l-27.4-111.5c-0.7-2.7-3.2-4.6-6-4.4L144,165.6c-3.2,0.2-5.6,3-5.3,6.2C138.8,172.1,138.8,172.5,138.9,172.8
	L138.9,172.8z"/>
<ellipse id="Ellipse_42" fill="#FFFFFF" cx="362.1" cy="178.3" rx="12.4" ry="12.5"/>
<path id="Path_51" fill="#FFFFFF" d="M372.3,155.5c0,0,2.6,7.8-5.1,11l-1,1.7l4.8,4.8c0,0,5.9-10.8,5.3-14.7
	C376.3,158.3,375.4,154.3,372.3,155.5z"/>
<circle id="Ellipse_43" fill="#6C63FF" cx="363.5" cy="178.9" r="11.9"/>
<path id="Path_52" fill="#6C63FF" d="M376.4,160l-1.9-3.1l-2.8-0.4c0.6-10.3-2.1-13.4-2.1-13.4l-0.6-0.1l-2.7-0.3l-5.1-5.3V136
	c7.1,0.9,11.1,4.2,13.2,8.2C378.2,151.2,376.4,160,376.4,160z"/>
<path id="Path_53" opacity="0.1" stroke="#4C4981" stroke-miterlimit="10" enable-background="new    " d="M369,141.2v1.9l-2.7-0.3
	l-5.1-5.3C361.2,137.5,369.1,139.3,369,141.2z"/>
<path id="Path_54" opacity="0.1" stroke="#4C4981" stroke-miterlimit="10" enable-background="new    " d="M376.4,160l-1.9-3.1
	v-12.6C378.2,151.2,376.4,160,376.4,160z"/>
<ellipse id="Ellipse_44" transform="matrix(0.866 -0.5 0.5 0.866 -41.7378 190.9302)" fill="#FFFFFF" cx="335.4" cy="173.3" rx="6.6" ry="12.1"/>
<path id="Path_55" fill="#6C63FF" d="M337.2,172.3c3.3,5.8,7.4,9.7,4.3,11.5s-12.4,0.9-15.8-4.9s-0.3-13.8,2.9-15.6
	S333.9,166.5,337.2,172.3z"/>
<path id="Path_56" opacity="0.1" enable-background="new    " d="M367,130.6c0,18.5-12.7,36.3-31.2,36.3c-18.5,0-33.5-15-33.5-33.5
	c0-18.5,15-33.5,33.5-33.5C354.3,99.9,367,112.1,367,130.6z"/>
<circle id="Ellipse_45" fill="#AE6E79" cx="335.8" cy="132.5" r="33.5"/>
<path id="Path_57" fill="#444053" d="M332.9,117.7c4,1.5,6.3,5.6,9.9,7.9c5.1,3.2,11.6,2.4,17.4,0.8c3.2-0.9,6.6-2,9.8-1
	c0.5,0.2,1,0.3,1.5,0.2c0.7-0.2,1-1,1.3-1.6c3.9-11.7,2.2-24.9-3.8-35.7c-1.4-2.9-3.4-5.4-5.9-7.4c-2-1.5-4.3-2.6-6.7-3.4
	c-4.3-1.5-8.8-2.6-13.3-3.3c-0.8-0.1-1.6-0.2-2.4-0.1c-1.1,0.3-2.1,0.7-3.1,1.3c-4.2,2.3-8.9,3.5-13.7,3.7
	c-6.4,0.2-13.8-1.3-18.8,2.9c-6,5-4.5,14.6-8.4,21.3c-2.6,4.4-7.5,7.7-8.3,12.7c-0.2,1.5-0.1,3.1,0.3,4.6c2.1,8,9.2,13.7,17.5,14
	c1.2,0.1,2.5-0.2,3.6-0.7c0.7-0.5,1.4-1.1,1.9-1.8C316.9,125.9,322.9,114,332.9,117.7z"/>
<path id="Path_58" opacity="0.1" enable-background="new    " d="M372.7,120.6c-0.2,0.7-0.6,1.4-1.3,1.6c-0.5,0.1-1,0-1.5-0.2
	c-3.2-1-6.6,0.1-9.8,1c-5.8,1.6-12.4,2.4-17.4-0.8c-3.6-2.3-5.9-6.4-9.9-7.9c-10-3.7-16,8.2-21.3,14.5c-0.5,0.7-1.2,1.3-1.9,1.8
	c-1.1,0.6-2.3,0.8-3.6,0.7c-8.3-0.3-15.3-6-17.5-14c-0.1-0.5-0.2-0.9-0.3-1.4c0,0,0,0.1,0,0.1c-0.2,1.5-0.1,3.1,0.3,4.6
	c2.1,8,9.2,13.6,17.5,14c1.2,0.1,2.5-0.2,3.6-0.7c0.7-0.5,1.4-1.1,1.9-1.8c5.3-6.2,11.3-18.1,21.3-14.5c4,1.5,6.3,5.6,9.9,7.9
	c5.1,3.2,11.6,2.4,17.4,0.8c3.2-0.9,6.6-2,9.8-1c0.5,0.2,1,0.3,1.5,0.2c0.7-0.2,1-1,1.3-1.6c1.6-4.8,2.3-9.8,2.1-14.8
	C374.6,113,373.9,116.9,372.7,120.6L372.7,120.6z"/>
</svg>
