<svg id="Layer_1" data-name="Layer 1" xmlns="http://www.w3.org/2000/svg" width="280.4mm" height="209.2mm" viewBox="0 0 794.9 593.1">
  <path d="M380.4,182.8H277.8v-2H380.4Z" fill="#3f3d56"/>
  <path d="M139.1,288.8c5.5-14.5,13.7-24.9,18.2-23.1s3.8,14.9-1.8,29.4-13.7,24.8-18.2,23.1S133.5,303.3,139.1,288.8Z" fill="#2f2e41"/>
  <path d="M791.7,362.8c11.2,83.1-4,166.2-81.3,198.6a151.7,151.7,0,0,1-198.6-81.3h0c-32.4-77.3,44-123.5,81.3-198.6C668.9,129.1,757,104.9,791.7,362.8Z" fill="#f2f2f2"/>
  <path d="M652.5,549.4c66.9,0,121.1,7.4,121.1,16.5s-54.2,16.5-121.1,16.5S531.4,575,531.4,565.9,585.6,549.4,652.5,549.4Z" fill="#3f3d56"/>
  <path d="M573.2,524l29.5-8.2,4.6,16.5-29.5,8.2Z" fill="#2f2e41"/>
  <path d="M567.7,515.9c2.8-.8,6.8,4.7,8.8,12.3s1.5,14.3-1.3,15.1-6.8-4.7-8.9-12.3S564.8,516.7,567.7,515.9Z" fill="#2f2e41"/>
  <path id="arm-2" d="M648.9,465c2.1-15.4,7.7-27.3,12.5-26.7s7.1,13.7,5,29-7.7,27.4-12.5,26.7S646.9,480.4,648.9,465Z" fill="#2f2e41"/>
  <path d="M652.2,462.5a56.3,56.3,0,1,1-56.3,56.3A56.3,56.3,0,0,1,652.2,462.5Z" fill="#2f2e41"/>
  <path d="M573.2,514l29.5-8.2,4.6,16.5-29.5,8.2Z" fill="#2f2e41"/>
  <path d="M567.7,506c2.8-.8,6.8,4.7,8.9,12.3s1.5,14.3-1.4,15.1-6.8-4.7-8.9-12.3S564.9,506.8,567.7,506Z" fill="#2f2e41"/>
  <path d="M667,467.4a19.2,19.2,0,1,1-19.2,19.2A19.2,19.2,0,0,1,667,467.4Z" fill="#fff"/>
  <path d="M673.1,471.7a6.4,6.4,0,1,1-6.4,6.4A6.4,6.4,0,0,1,673.1,471.7Z" fill="#3f3d56"/>
  <path d="M717.2,557.5c20.8-1,36.8-20.5,35.6-43.5s-19-40.8-39.8-39.7-24.1,17.4-22.9,40.4S696.4,558.5,717.2,557.5Z" fill="#9984fe"/>
  <path d="M629.2,495a12.8,12.8,0,1,1-2.1-25.5c7.1-.6,9,5,9.6,12.1S636.3,494.4,629.2,495Z" fill="#fff"/>
  <path d="M477.6,320.2l-127.4-62H35.2v-2H350.6l126.2,61.4,50.7-95H672.2v2H528.7Z" fill="#3f3d56"/>
  <path d="M158.7,257.4a9.7,9.7,0,1,1-9.7,9.7A9.6,9.6,0,0,1,158.7,257.4Z" fill="#9984fe"/>
  <path d="M249.7,247.5a9.7,9.7,0,1,1-9.7,9.7A9.6,9.6,0,0,1,249.7,247.5Z" fill="#9984fe"/>
  <path d="M399.2,271.3a9.7,9.7,0,1,1-9.7,9.7A9.6,9.6,0,0,1,399.2,271.3Z" fill="#9984fe"/>
  <path d="M609.3,213.9a9.7,9.7,0,1,1-9.7,9.7A9.6,9.6,0,0,1,609.3,213.9Z" fill="#9984fe"/>
  <path d="M507.5,251.8a9.7,9.7,0,1,1-9.7,9.7A9.6,9.6,0,0,1,507.5,251.8Z" fill="#9984fe"/>
  <path d="M304.6,425.7a11.5,11.5,0,1,1,11.5-11.5A11.6,11.6,0,0,1,304.6,425.7Zm0-21a9.5,9.5,0,1,0,9.5,9.5A9.6,9.6,0,0,0,304.6,404.7Z" fill="#3f3d56"/>
  <path d="M121.1,560.1c66.9,0,121.1,7.4,121.1,16.5S188,593.1,121.1,593.1,0,585.7,0,576.6,54.2,560.1,121.1,560.1Z" fill="#3f3d56"/>
  <path d="M114.5,439.8a56.3,56.3,0,1,1-56.3,56.3A56.3,56.3,0,0,1,114.5,439.8Z" fill="#2f2e41"/>
  <path d="M88.9,540.3H106v30.6H88.9Z" fill="#2f2e41"/>
  <path d="M123.1,540.3h17.1v30.6H123.1Z" fill="#2f2e41"/>
  <path d="M103.2,566c7.8,0,14.2,2.4,14.2,5.3s-6.4,5.3-14.2,5.3S89,574.2,89,571.3,95.4,566,103.2,566Z" fill="#2f2e41"/>
  <path d="M137.3,565.2c7.8,0,14.2,2.4,14.2,5.3s-6.4,5.3-14.2,5.3-14.2-2.4-14.2-5.3S129.5,565.2,137.3,565.2Z" fill="#2f2e41"/>
  <path d="M116,462.7a19.2,19.2,0,1,1-19.2,19.2A19.2,19.2,0,0,1,116,462.7Z" fill="#fff"/>
  <path d="M116,475.5a6.4,6.4,0,1,1-6.4,6.4A6.4,6.4,0,0,1,116,475.5Z" fill="#3f3d56"/>
  <path d="M60,443.8c-4.5-20.3,10-40.9,32.4-45.9s44.4,7.4,48.9,27.8-10.3,27.9-32.8,32.9S64.5,464.1,60,443.8Z" fill="#9984fe"/>
  <path d="M95.3,278.1A56.3,56.3,0,1,1,39,334.4,56.3,56.3,0,0,1,95.3,278.1Z" fill="#2f2e41"/>
  <path d="M69.7,378.6H86.8v30.6H69.7Z" fill="#2f2e41"/>
  <path d="M103.9,378.6H121v30.6H103.9Z" fill="#2f2e41"/>
  <path d="M83.9,404.3c7.8,0,14.2,2.4,14.2,5.3s-6.4,5.3-14.2,5.3-14.2-2.4-14.2-5.3S76.1,404.3,83.9,404.3Z" fill="#2f2e41"/>
  <path d="M118.1,403.5c7.8,0,14.2,2.4,14.2,5.3s-6.4,5.3-14.2,5.3-14.2-2.4-14.2-5.3S110.3,403.5,118.1,403.5Z" fill="#2f2e41"/>
  <path id="eye-2" d="M96.7,301a19.2,19.2,0,1,1-19.2,19.2A19.2,19.2,0,0,1,96.7,301Z" fill="#fff"/>
  <path d="M96.7,313.8a6.4,6.4,0,1,1-6.4,6.4A6.4,6.4,0,0,1,96.7,313.8Z" fill="#3f3d56"/>
  <path d="M40.7,282.1c-4.5-20.4,10-40.9,32.4-45.9s44.4,7.4,48.9,27.8-10.3,27.9-32.8,32.9S45.3,302.4,40.7,282.1Z" fill="#9984fe"/>
  <path d="M6.5,296.3c2.1-4.4,15.2-2.6,29.2,4.1s23.7,15.6,21.6,20-15.1,2.5-29.2-4.1S4.4,300.7,6.5,296.3Z" fill="#2f2e41"/>
  <path d="M67.7,354.7c0,5.5,14.2,16.4,29.9,16.4s30.5-15.5,30.5-21-14.8,1.1-30.5,1.1S67.7,349.2,67.7,354.7Z" fill="#fff"/>
  <path id="box" d="M595.1,402.3h89.8V448H595.1Z" fill="#9984fe"/>
  <path id="box-outline" d="M678.9,456.4H587.1V408.7h91.8Zm-89.8-2h87.8V410.7H589.1Z" fill="#3f3d56"/>
  <path d="M161.4,141.8H187v25.6H161.4Z" fill="#ff6584"/>
  <path d="M181.6,159.8H154V132.2h27.6Zm-25.6-2h23.6V134.2H156Z" fill="#3f3d56"/>
  <path d="M645.4,78.7A56.3,56.3,0,1,1,589.1,135,56.3,56.3,0,0,1,645.4,78.7Z" fill="#2f2e41"/>
  <path d="M661.7,176.9l16.8-3.1L684,204l-16.9,3Z" fill="#2f2e41"/>
  <path d="M628,183l16.8-3.1,5.5,30.2-16.9,3Z" fill="#2f2e41"/>
  <path d="M635.6,211.3c6-5,12.3-7.3,14.2-5.1s-1.4,8.1-7.4,13.2-12.3,7.4-14.2,5.1S629.6,216.4,635.6,211.3Z" fill="#2f2e41"/>
  <path d="M668.5,205.4c5.9-5.1,12.3-7.4,14.2-5.2s-1.4,8.2-7.4,13.3-12.4,7.3-14.2,5.1S662.5,210.4,668.5,205.4Z" fill="#2f2e41"/>
  <path id="eyeball" d="M641.5,102a19.2,19.2,0,1,1-19.2,19.2A19.2,19.2,0,0,1,641.5,102Z" fill="#fff"/>
  <path id="iris" d="M633.6,107.9a6.4,6.4,0,1,1-6.4,6.4A6.4,6.4,0,0,1,633.6,107.9Z" fill="#3f3d56"/>
  <path d="M689.8,73.7c.8-20.8-17.1-38.5-40.1-39.4s-42.3,15.2-43.2,36,15.1,25.6,38.1,26.5S689,94.6,689.8,73.7Z" fill="#9984fe"/>
  <path d="M566.1,118.4c1.1-4.7,14.2-5.8,29.4-2.3S622,126.2,620.9,131s-14.2,5.7-29.4,2.3S565,123.2,566.1,118.4Z" fill="#2f2e41"/>
  <path d="M676.6,136.9c1.1-4.8,14.2-5.8,29.3-2.3s26.5,10.1,25.5,14.8-14.3,5.8-29.4,2.3S675.5,141.6,676.6,136.9Z" fill="#2f2e41"/>
  <path id="mouth" d="M660.9,157.1a12.8,12.8,0,1,1-25.2,4.6c-1.3-7,4.1-9.4,11.1-10.7S659.6,150.2,660.9,157.1Z" fill="#fff"/>
  <path d="M571.8,121.2,507,71.3l1.2-1.6L573,119.6Z" fill="#3f3d56"/>
  <path d="M477,0a48.4,48.4,0,1,1-48.4,48.4A48.4,48.4,0,0,1,477,0Z" fill="#ff6584"/>
  <path id="arm-1" d="M627.9,478.3c2-15.4,7.6-27.3,12.5-26.6s7,13.6,4.9,29-7.7,27.3-12.5,26.7S625.8,493.7,627.9,478.3Z" fill="#2f2e41"/>
  <path d="M49,550.2a9.7,9.7,0,1,1-9.7,9.7A9.6,9.6,0,0,1,49,550.2Z" fill="#6c63ff"/>
  <path d="M182.8,548.5h25.6v25.6H182.8Z" fill="#ff6584"/>
  <path d="M182.9,555.9a9.7,9.7,0,1,1-9.7,9.7A9.6,9.6,0,0,1,182.9,555.9Z" fill="#6c63ff"/>
  <path id="circle-1" d="M329.1,172a9.7,9.7,0,1,1-9.7,9.7A9.6,9.6,0,0,1,329.1,172Z" fill="#9984fe"/>
  <path d="M518.4,479.2a4.7,4.7,0,1,1-4.7,4.7A4.7,4.7,0,0,1,518.4,479.2Z" fill="#ff6584"/>
  <path id="plant" d="M542.2,561.1h-2v-53h2Zm-1-60.5a7.5,7.5,0,1,1-7.5,7.5A7.6,7.6,0,0,1,541.2,500.6Zm0,40.2s-1.1-23-23-20.4" fill="#3f3d56"/>
</svg>
