<?xml version="1.0" encoding="utf-8"?>
<!-- Generator: Adobe Illustrator 25.0.1, SVG Export Plug-In . SVG Version: 6.00 Build 0)  -->
<svg version="1.1" id="Layer_1" xmlns="http://www.w3.org/2000/svg" xmlns:xlink="http://www.w3.org/1999/xlink" x="0px" y="0px"
	 viewBox="0 0 794.9 593.1" enable-background="new 0 0 794.9 593.1" xml:space="preserve">
<line fill="none" stroke="#3F3D56" stroke-width="2" stroke-miterlimit="10" x1="277.8" y1="181.8" x2="380.4" y2="181.8"/>
<ellipse transform="matrix(0.357 -0.9341 0.9341 0.357 -177.9418 325.3034)" fill="#2F2E41" cx="147.3" cy="291.9" rx="28.1" ry="8.8"/>
<path fill="#F2F2F2" d="M791.7,362.8c11.2,83.1-4,166.2-81.3,198.6c-77.3,32.4-166.2-4-198.6-81.3c0,0,0,0,0,0
	c-32.4-77.3,44-123.5,81.3-198.6C668.9,129.1,757,104.9,791.7,362.8z"/>
<ellipse fill="#3F3D56" cx="652.5" cy="565.9" rx="121.1" ry="16.5"/>
<rect x="575" y="519.6" transform="matrix(0.9638 -0.2664 0.2664 0.9638 -119.3816 176.3825)" fill="#2F2E41" width="30.6" height="17.1"/>
<ellipse transform="matrix(0.9638 -0.2664 0.2664 0.9638 -120.4602 171.4286)" fill="#2F2E41" cx="571.5" cy="529.6" rx="5.3" ry="14.2"/>
<ellipse transform="matrix(0.1343 -0.9909 0.9909 0.1343 107.4803 1055.2721)" fill="#2F2E41" cx="657.7" cy="466.1" rx="28.1" ry="8.8"/>
<circle fill="#2F2E41" cx="652.2" cy="518.8" r="56.3"/>
<rect x="575" y="509.6" transform="matrix(0.9638 -0.2664 0.2664 0.9638 -116.7243 176.022)" fill="#2F2E41" width="30.6" height="17.1"/>
<ellipse transform="matrix(0.9638 -0.2664 0.2664 0.9638 -117.8029 171.0681)" fill="#2F2E41" cx="571.5" cy="519.7" rx="5.3" ry="14.2"/>
<circle fill="#FFFFFF" cx="667" cy="486.6" r="19.2"/>
<circle fill="#3F3D56" cx="673.1" cy="478.1" r="6.4"/>
<path fill="#9984FE" d="M717.2,557.5c20.8-1,36.8-20.5,35.6-43.5s-19-40.8-39.8-39.7s-24.1,17.4-22.9,40.4S696.4,558.5,717.2,557.5z
	"/>
<path fill="#FFFFFF" d="M629.2,495c-7.1,0.6-13.2-4.7-13.8-11.7c-0.6-7.1,4.7-13.2,11.7-13.8c7.1-0.6,9,5,9.6,12.1
	S636.3,494.4,629.2,495z"/>
<path fill="none" stroke="#3F3D56" stroke-width="2" stroke-miterlimit="10" d="M35.2,257.2h315.2l48.9,23.8l77.9,37.9l50.9-95.3
	h144.1"/>
<circle fill="#9984FE" cx="158.7" cy="267.1" r="9.7"/>
<circle fill="#9984FE" cx="249.7" cy="257.2" r="9.7"/>
<circle fill="#9984FE" cx="399.2" cy="281" r="9.7"/>
<circle fill="#9984FE" cx="609.3" cy="223.6" r="9.7"/>
<circle fill="#9984FE" cx="507.5" cy="261.5" r="9.7"/>
<circle fill="none" stroke="#3F3D56" stroke-width="2" stroke-miterlimit="10" cx="304.6" cy="414.2" r="10.5"/>
<ellipse fill="#3F3D56" cx="121.1" cy="576.6" rx="121.1" ry="16.5"/>
<circle fill="#2F2E41" cx="114.5" cy="496.1" r="56.3"/>
<rect x="88.9" y="540.3" fill="#2F2E41" width="17.1" height="30.6"/>
<rect x="123.1" y="540.3" fill="#2F2E41" width="17.1" height="30.6"/>
<ellipse fill="#2F2E41" cx="103.2" cy="571.3" rx="14.2" ry="5.3"/>
<ellipse fill="#2F2E41" cx="137.3" cy="570.5" rx="14.2" ry="5.3"/>
<circle fill="#FFFFFF" cx="116" cy="481.9" r="19.2"/>
<circle fill="#3F3D56" cx="116" cy="481.9" r="6.4"/>
<path fill="#9984FE" d="M60,443.8c-4.5-20.3,10-40.9,32.4-45.9s44.4,7.4,48.9,27.8s-10.3,27.9-32.8,32.9S64.5,464.1,60,443.8z"/>
<circle fill="#2F2E41" cx="95.3" cy="334.4" r="56.3"/>
<rect x="69.7" y="378.6" fill="#2F2E41" width="17.1" height="30.6"/>
<rect x="103.9" y="378.6" fill="#2F2E41" width="17.1" height="30.6"/>
<ellipse fill="#2F2E41" cx="83.9" cy="409.6" rx="14.2" ry="5.3"/>
<ellipse fill="#2F2E41" cx="118.1" cy="408.8" rx="14.2" ry="5.3"/>
<circle fill="#FFFFFF" cx="96.7" cy="320.2" r="19.2"/>
<circle fill="#3F3D56" cx="96.7" cy="320.2" r="6.4"/>
<path fill="#9984FE" d="M40.7,282.1c-4.5-20.4,10-40.9,32.4-45.9s44.4,7.4,48.9,27.8s-10.3,27.9-32.8,32.9S45.3,302.4,40.7,282.1z"
	/>
<ellipse transform="matrix(0.4285 -0.9035 0.9035 0.4285 -260.2998 205.0292)" fill="#2F2E41" cx="31.9" cy="308.3" rx="8.8" ry="28.1"/>
<path fill="#FFFFFF" d="M67.7,354.7c0,5.5,14.2,16.4,29.9,16.4s30.5-15.5,30.5-21s-14.8,1.1-30.5,1.1S67.7,349.2,67.7,354.7z"/>
<rect x="595.1" y="402.3" fill="#9984FE" width="89.8" height="45.7"/>
<rect x="588.1" y="409.7" fill="none" stroke="#3F3D56" stroke-width="2" stroke-miterlimit="10" width="89.8" height="45.7"/>
<rect x="161.4" y="141.8" fill="#FF6584" width="25.6" height="25.6"/>
<rect x="155" y="133.2" fill="none" stroke="#3F3D56" stroke-width="2" stroke-miterlimit="10" width="25.6" height="25.6"/>
<circle fill="#2F2E41" cx="645.4" cy="135" r="56.3"/>
<rect x="664.3" y="175.1" transform="matrix(0.984 -0.1781 0.1781 0.984 -23.164 122.9002)" fill="#2F2E41" width="17.1" height="30.6"/>
<rect x="630.6" y="181.2" transform="matrix(0.984 -0.1781 0.1781 0.984 -24.7871 117.0041)" fill="#2F2E41" width="17.1" height="30.6"/>
<ellipse transform="matrix(0.7632 -0.6462 0.6462 0.7632 12.1261 463.9009)" fill="#2F2E41" cx="639" cy="215.4" rx="14.2" ry="5.3"/>
<ellipse transform="matrix(0.7632 -0.6462 0.6462 0.7632 23.7805 483.7762)" fill="#2F2E41" cx="671.9" cy="209.4" rx="14.2" ry="5.3"/>
<circle fill="#FFFFFF" cx="641.5" cy="121.2" r="19.2"/>
<circle fill="#3F3D56" cx="633.6" cy="114.3" r="6.4"/>
<path fill="#9984FE" d="M689.8,73.7c0.8-20.8-17.1-38.5-40.1-39.4s-42.3,15.2-43.2,36s15.1,25.6,38.1,26.5S689,94.6,689.8,73.7z"/>
<ellipse transform="matrix(0.223 -0.9748 0.9748 0.223 339.5803 675.4205)" fill="#2F2E41" cx="593.5" cy="124.7" rx="8.8" ry="28.1"/>
<ellipse transform="matrix(0.223 -0.9748 0.9748 0.223 407.5045 797.3821)" fill="#2F2E41" cx="703.9" cy="143.1" rx="8.8" ry="28.1"/>
<path fill="#FFFFFF" d="M660.9,157.1c1.3,7-3.4,13.6-10.3,14.9s-13.6-3.4-14.9-10.3c-1.3-7,4.1-9.4,11.1-10.7
	S659.6,150.2,660.9,157.1z"/>
<line fill="none" stroke="#3F3D56" stroke-width="2" stroke-miterlimit="10" x1="507.6" y1="70.5" x2="572.4" y2="120.4"/>
<circle fill="#FF6584" cx="477" cy="48.4" r="48.4"/>
<ellipse transform="matrix(0.1343 -0.9909 0.9909 0.1343 75.9454 1045.9165)" fill="#2F2E41" cx="636.6" cy="479.5" rx="28.1" ry="8.8"/>
<circle fill="#6C63FF" cx="49" cy="559.9" r="9.7"/>
<rect x="182.8" y="548.5" fill="#FF6584" width="25.6" height="25.6"/>
<circle fill="#6C63FF" cx="182.9" cy="565.6" r="9.7"/>
<circle fill="#9984FE" cx="329.1" cy="181.7" r="9.7"/>
<circle fill="#FF6584" cx="518.4" cy="483.9" r="4.7"/>
<line fill="none" stroke="#3F3D56" stroke-width="2" stroke-miterlimit="10" x1="541.2" y1="561.1" x2="541.2" y2="508.1"/>
<circle fill="#3F3D56" cx="541.2" cy="508.1" r="7.5"/>
<path fill="#3F3D56" d="M541.2,540.8c0,0-1.1-23-23-20.4"/>
</svg>
