<svg xmlns="http://www.w3.org/2000/svg" width="74.279" height="45" viewBox="0 0 74.279 45"><g transform="translate(-307.5 -228.8)"><path d="M312.5,248.295h2.227v1.376a3.95,3.95,0,0,1,6.714.426,4.315,4.315,0,0,1,3.9-2.1c3.832,0,4.192,3.21,4.192,5.044v8.188H327.3v-7.86c0-1.474-.2-3.406-2.293-3.406-2.587,0-2.882,2.489-2.882,4.061v7.205H319.9v-7.664c0-.917.033-3.57-2.325-3.57-2.555,0-2.849,2.653-2.849,4.192v7.041H312.5Z" transform="translate(-3.362 -12.912)" fill="#383838"/><path d="M385.91,248.362h2.227V261.3H385.91v-1.8a5.531,5.531,0,0,1-4.421,2.194c-3.275,0-6.288-2.293-6.288-6.845,0-4.454,2.98-6.747,6.288-6.747a5.329,5.329,0,0,1,4.421,2.162Zm-8.417,6.452c0,2.784,1.572,4.847,4.225,4.847,2.751,0,4.29-2.26,4.29-4.814,0-3.341-2.293-4.814-4.29-4.814C379.523,250.065,377.493,251.67,377.493,254.814Z" transform="translate(-45.528 -12.979)" fill="#383838"/><path d="M436.01,248.362h2.227v12.609a8.112,8.112,0,0,1-1.245,5.076,6.274,6.274,0,0,1-5.175,2.391A6.5,6.5,0,0,1,427.2,266.7a5.756,5.756,0,0,1-1.67-4.159h2.227a4.119,4.119,0,0,0,.983,2.686,4.078,4.078,0,0,0,3.111,1.245,3.632,3.632,0,0,0,3.439-1.8,6.023,6.023,0,0,0,.721-3.308V259.5a5.531,5.531,0,0,1-4.421,2.194,6.218,6.218,0,0,1-4.421-1.736,6.969,6.969,0,0,1-1.867-5.109,6.81,6.81,0,0,1,1.867-5.011,6.411,6.411,0,0,1,4.421-1.736,5.357,5.357,0,0,1,4.421,2.162Zm-7.107,2.915a4.939,4.939,0,0,0-1.31,3.537,5,5,0,0,0,1.474,3.8,3.944,3.944,0,0,0,2.784,1.048,3.852,3.852,0,0,0,2.849-1.081,5.238,5.238,0,0,0,1.474-3.734,4.987,4.987,0,0,0-1.376-3.635,4.109,4.109,0,0,0-2.915-1.146A4.012,4.012,0,0,0,428.9,251.277Z" transform="translate(-79.219 -12.979)" fill="#383838"/><path d="M478.036,228.8a1.736,1.736,0,1,1-1.736,1.736A1.747,1.747,0,0,1,478.036,228.8Z" transform="translate(-113.516 0)" fill="#6584ff"/><rect width="2.227" height="12.937" transform="translate(363.275 235.383)" fill="#383838"/><path d="M505.972,251.93A5.159,5.159,0,0,0,501.91,250a4.8,4.8,0,0,0-.033,9.6,5.452,5.452,0,0,0,4.159-2.031v2.686a6.99,6.99,0,0,1-4.127,1.343,6.8,6.8,0,1,1,0-13.592,6.94,6.94,0,0,1,4.028,1.245v2.686Z" transform="translate(-126.092 -12.912)" fill="#383838"/><path d="M319.29,306.137a5.015,5.015,0,0,0-3.439-1.474,2.542,2.542,0,0,0-2,.721,1.829,1.829,0,0,0-.524,1.277,1.528,1.528,0,0,0,.459,1.146,8.416,8.416,0,0,0,2.587,1.179l1.539.59a7.689,7.689,0,0,1,2.784,1.572,5.1,5.1,0,0,1,1.507,3.832,7.487,7.487,0,0,1-1.8,5.076,7.978,7.978,0,0,1-5.83,2.1,8.959,8.959,0,0,1-4.061-.852,12.3,12.3,0,0,1-3.013-2.26l2.456-3.373a11.786,11.786,0,0,0,1.9,1.572,4.775,4.775,0,0,0,2.587.753,3.294,3.294,0,0,0,2.162-.721,2.129,2.129,0,0,0,.753-1.67,1.716,1.716,0,0,0-.721-1.474,10.644,10.644,0,0,0-2.391-1.146l-1.7-.59a6.48,6.48,0,0,1-2.849-1.638,5.063,5.063,0,0,1-1.245-3.57,6.426,6.426,0,0,1,1.769-4.618,6.614,6.614,0,0,1,5.076-1.867,10.021,10.021,0,0,1,6.092,2.031Z" transform="translate(0 -48.352)" fill="#363636"/><path d="M362.861,317.191v10.153h-4.421V317.191H356.9v-3.57h1.539V309.2h4.421v4.421h2.751v3.57Z" transform="translate(-33.221 -54.068)" fill="#363636"/><path d="M454.4,326.114a4.516,4.516,0,0,0-2.882-1.048,3.42,3.42,0,0,0-3.537,3.57,3.532,3.532,0,0,0,.917,2.456,3.636,3.636,0,0,0,2.686,1.114,4.383,4.383,0,0,0,2.817-1.081v4a6.734,6.734,0,0,1-3.5.819,7.409,7.409,0,0,1-5.338-2.063,7.179,7.179,0,0,1-2.162-5.24,7.165,7.165,0,0,1,7.5-7.336,8.2,8.2,0,0,1,3.472.753v4.061Z" transform="translate(-91.391 -62.205)" fill="#363636"/><path d="M490.821,296.1v13.755l4.978-5.044h5.83l-6.517,6.223,6.976,7.5h-5.961l-5.306-5.9v5.9H486.4V296.1Z" transform="translate(-120.308 -45.259)" fill="#363636"/><path d="M403.372,328.636a7.336,7.336,0,1,0-7.336,7.336,2.544,2.544,0,0,0,.524-.065v.065h6.779v-7.14h-.033A.465.465,0,0,0,403.372,328.636Z" transform="translate(-54.606 -62.205)" fill="#ff6584"/></g></svg>
